<?xml version="1.0" encoding="UTF-8" standalone="no"?>
<!-- Created with Inkscape (http://www.inkscape.org/) -->

<svg
   xmlns:dc="http://purl.org/dc/elements/1.1/"
   xmlns:cc="http://creativecommons.org/ns#"
   xmlns:rdf="http://www.w3.org/1999/02/22-rdf-syntax-ns#"
   xmlns:svg="http://www.w3.org/2000/svg"
   xmlns="http://www.w3.org/2000/svg"
   xmlns:sodipodi="http://sodipodi.sourceforge.net/DTD/sodipodi-0.dtd"
   xmlns:inkscape="http://www.inkscape.org/namespaces/inkscape"
   width="210mm"
   height="297mm"
   viewBox="0 0 210 297"
   version="1.1"
   id="svg8"
   inkscape:version="0.92.4 (5da689c313, 2019-01-14)"
   sodipodi:docname="drawing-1 EKA.svg"
   inkscape:export-filename="C:\Users\Acer\Documents\CV\drawing-1 EKA.png"
   inkscape:export-xdpi="96"
   inkscape:export-ydpi="96">
  <defs
     id="defs2" />
  <sodipodi:namedview
     id="base"
     pagecolor="#ffffff"
     bordercolor="#666666"
     borderopacity="1.0"
     inkscape:pageopacity="0.0"
     inkscape:pageshadow="2"
     inkscape:zoom="0.49497475"
     inkscape:cx="262.87637"
     inkscape:cy="522.06671"
     inkscape:document-units="mm"
     inkscape:current-layer="layer1"
     showgrid="false"
     inkscape:window-width="1920"
     inkscape:window-height="986"
     inkscape:window-x="-11"
     inkscape:window-y="-11"
     inkscape:window-maximized="1" />
  <metadata
     id="metadata5">
    <rdf:RDF>
      <cc:Work
         rdf:about="">
        <dc:format>image/svg+xml</dc:format>
        <dc:type
           rdf:resource="http://purl.org/dc/dcmitype/StillImage" />
        <dc:title />
      </cc:Work>
    </rdf:RDF>
  </metadata>
  <g
     inkscape:label="Layer 1"
     inkscape:groupmode="layer"
     id="layer1">
    <rect
       style="opacity:0.98999999;fill:#999999;fill-opacity:1;stroke-width:0.26458332"
       id="rect10"
       width="211.66666"
       height="300.86905"
       x="-1.5119048"
       y="-0.84523809" />
    <text
       xml:space="preserve"
       style="font-style:normal;font-variant:normal;font-weight:normal;font-stretch:normal;font-size:28.59513283px;line-height:1.25;font-family:'Bookman Old Style';-inkscape-font-specification:'Bookman Old Style';font-variant-ligatures:normal;font-variant-caps:normal;font-variant-numeric:normal;text-align:start;letter-spacing:0px;word-spacing:0px;writing-mode:lr-tb;text-anchor:start;fill:#000000;fill-opacity:1;stroke:none;stroke-width:0.5361588"
       x="64.141548"
       y="30.399963"
       id="text14"
       transform="scale(0.72472265,1.3798382)"><tspan
         sodipodi:role="line"
         id="tspan12"
         x="64.141548"
         y="30.399963"
         style="stroke-width:0.5361588">SAVE THE</tspan></text>
    <text
       xml:space="preserve"
       style="font-style:normal;font-variant:normal;font-weight:normal;font-stretch:normal;font-size:46.91003036px;line-height:1.25;font-family:'Bookman Old Style';-inkscape-font-specification:'Bookman Old Style';font-variant-ligatures:normal;font-variant-caps:normal;font-variant-numeric:normal;text-align:start;letter-spacing:0px;word-spacing:0px;writing-mode:lr-tb;text-anchor:start;fill:#008000;fill-opacity:1;stroke:none;stroke-width:0.87956303;"
       x="71.390282"
       y="69.835182"
       id="text18"
       transform="scale(0.66935416,1.4939774)"><tspan
         sodipodi:role="line"
         id="tspan16"
         x="71.390282"
         y="69.835182"
         style="stroke-width:0.87956303;fill:#008000;">TREES</tspan></text>
    <path
       style="opacity:0.98999999;fill:#008000;fill-opacity:1;stroke-width:1.50222957"
       d="M 224.9707 779.70508 A 311.25465 281.48967 0 0 0 -4.8535156 866.4043 L -4.8535156 1129.0938 L -5.7148438 1129.0938 L -5.7148438 1133.9473 L 794.28516 1133.9473 L 796.03906 1112.6523 A 197.35289 230.53033 0 0 0 602.51953 896.17383 A 197.35289 230.53033 0 0 0 495.0918 930.92969 A 311.25465 281.48967 0 0 0 224.9707 779.70508 z "
       transform="scale(0.26458333)"
       id="path50" />
    <path
       style="opacity:0.98999999;fill:#008000;fill-opacity:1;stroke-width:0.21058093"
       d="m 53.632343,112.95466 a 22.126068,16.630656 0 0 0 -22.412961,15.03415 22.126068,16.630656 0 0 0 -0.07295,2.00125 23.235955,18.266458 0 0 0 -2.382602,-0.13196 23.235955,18.266458 0 0 0 -23.537525,16.51282 23.235955,18.266458 0 0 0 19.097134,19.74001 23.235955,18.266458 0 0 0 8.696634,-0.10697 16.871128,16.085387 0 0 0 13.700448,13.22672 16.871128,16.085387 0 0 0 17.018917,-7.0258 16.041398,16.085387 0 0 0 9.399583,5.38984 16.041398,16.085387 0 0 0 18.315162,-11.81776 l 0.381911,-3.97716 a 26.554611,15.267486 0 0 0 11.460019,-9.04121 l 0.79483,-4.74723 a 26.554611,15.267486 0 0 0 -26.038864,-14.33676 26.554611,15.267486 0 0 0 -3.4028,0.10885 22.126068,16.630656 0 0 0 0.01698,-0.041 l 0.662485,-5.17101 A 22.126068,16.630656 0 0 0 53.632336,112.95469 Z m -2.200724,33.20268 a 22.126068,16.630656 0 0 0 0.05861,0.001 26.554611,15.267486 0 0 0 -0.0382,0.1491 23.235955,18.266458 0 0 0 -0.02041,-0.15059 z"
       id="path69"
       inkscape:connector-curvature="0" />
    <path
       style="fill:#552200;stroke:#000000;stroke-width:0.15078072px;stroke-linecap:butt;stroke-linejoin:miter;stroke-opacity:1"
       d="m 43.134754,171.4177 -4.682308,1.58528 v 2.77445 0.39639 c 0,0.13212 -0.0698,0.27822 0,0.39639 0.09872,0.16711 0.369578,0.22927 0.468294,0.39639 0.0698,0.11817 -0.04937,0.27105 0,0.39638 0.624329,1.5854 0.449087,-0.0802 0.93627,1.98168 0.12244,0.5182 -0.197432,1.08393 0,1.58528 0.0698,0.17725 0.398493,0.21913 0.468296,0.39639 0.09132,0.23189 0,2.03785 0,2.37806 v 0.39639 c 0,0.13211 -0.0698,0.27821 0,0.39638 0.09872,0.16712 0.369577,0.22927 0.468295,0.39639 0.139604,0.23634 -0.09872,0.5421 0,0.79278 0.110366,0.28026 0.357926,0.51224 0.468294,0.79251 0.09307,0.23633 0,1.99404 0,2.37805 v 5.15278 14.66475 5.15251 c 0,0.16672 0.06965,2.26042 0,2.37832 -0.09871,0.16712 -0.369579,0.22901 -0.468294,0.39612 -0.0698,0.11817 0,0.26427 0,0.39639 v 1.98194 0.39612 c 0,0.13211 0.0698,0.27822 0,0.39639 -0.09872,0.16712 -0.312209,0.26427 -0.468295,0.39638 -0.312161,0.66059 -0.705357,1.29758 -0.93627,1.98168 -0.174849,0.51799 0.190098,1.8956 0,2.37833 -0.578615,1.46931 -0.468296,-0.48332 -0.468296,0.7925 v 1.98195 c 0,0.13211 0.110369,0.30269 0,0.39611 -0.110367,0.0934 -0.35792,-0.0934 -0.468294,0 -0.125184,0.10596 0.149342,1.72913 0,1.98194 -0.09871,0.16712 -0.369579,0.22901 -0.468295,0.39612 -0.149608,0.25328 0.125629,1.26653 0,1.58555 -0.220735,0.56053 -0.715855,1.02477 -0.936589,1.58529 -0.125631,0.31902 0.149608,1.33228 0,1.58555 -0.09872,0.16712 -0.369585,0.22928 -0.468297,0.39639 -0.139604,0.23634 0.139604,0.55617 0,0.79251 -0.09871,0.16711 -0.398172,0.21913 -0.467973,0.39639 -0.07911,0.20088 0,2.45043 0,2.77444 v 0.39639 c 0,0.13212 0.0698,0.27822 0,0.39639 -0.09872,0.16711 -0.369578,0.22927 -0.468296,0.39639 -0.187299,0.31708 0.1873,0.87181 0,1.18889 -0.09872,0.16712 -0.369577,0.22928 -0.468295,0.39639 -0.145017,0.24551 0.138546,1.46828 0,1.58555 -0.110366,0.0934 -0.357926,-0.0934 -0.468294,0 -0.02125,0.018 0,1.7948 0,1.98168 v 1.18889 c 0,0.13212 -0.110368,0.30297 0,0.39639 0.110368,0.0934 0.32869,-0.0591 0.468294,0 0.197434,0.0836 0.270863,0.31283 0.468295,0.39638 0.279208,0.11817 0.657056,-0.11816 0.936269,0 0.197427,0.0836 0.270864,0.31284 0.468297,0.3964 0.279208,0.11816 0.715854,-0.18685 0.936589,0 0.246795,0.20889 0.177899,0.6289 0.468295,0.79277 0.152333,0.086 1.987524,0 2.341155,0 h 25.285363 3.277744 c 0.156082,0 0.357928,0.0934 0.468297,0 0.110366,-0.0934 0,-0.26426 0,-0.39639 v -1.58555 -4.35973 -0.39639 c 0,-0.13211 0.110366,-0.30297 0,-0.39639 -0.110369,-0.0934 -0.357929,0.0934 -0.468297,0 -0.05469,-0.0463 0.0389,-1.53587 0,-1.58528 -0.193598,-0.2458 -0.689482,-0.18749 -0.936269,-0.39639 -0.110367,-0.0934 0.0698,-0.27822 0,-0.39639 -0.09872,-0.16712 -0.369578,-0.22927 -0.468295,-0.39638 -0.0698,-0.11818 0.110368,-0.30297 0,-0.39639 -0.110362,-0.0934 -0.32869,0.0591 -0.468294,0 -0.197434,-0.0836 -0.312216,-0.26401 -0.468295,-0.39612 -0.156081,-0.13212 -0.369579,-0.22928 -0.468295,-0.39639 -0.0698,-0.11817 0,-0.26427 0,-0.39639 0,-0.26423 0.09872,-0.5421 0,-0.79277 -0.0698,-0.17726 -0.369578,-0.22928 -0.468296,-0.39639 -0.322938,-0.54671 0.567354,-0.35433 -0.467973,-0.79251 -0.139604,-0.0591 -0.398494,0.11817 -0.468297,0 -0.139604,-0.23634 0.173159,-0.57292 0,-0.79278 -0.193598,-0.2458 -0.689801,-0.18749 -0.936589,-0.39639 -0.110373,-0.0934 0.0698,-0.27821 0,-0.39638 -0.09872,-0.16711 -0.369579,-0.22928 -0.468295,-0.39639 -0.139604,-0.23634 0.220736,-0.60566 0,-0.79251 -0.110368,-0.0934 -0.357927,0.0934 -0.468294,0 -0.144995,-0.12273 0.144993,-1.85921 0,-1.98194 -0.110368,-0.0934 -0.357928,0.0934 -0.468296,0 -0.138551,-0.11727 0.145019,-1.33978 0,-1.58528 -0.09872,-0.16712 -0.369258,-0.22928 -0.467974,-0.39639 -0.06981,-0.11817 0,-0.26427 0,-0.39639 v -0.39639 c 0,-0.39914 0.08631,-2.15887 0,-2.37806 -0.06981,-0.17725 -0.369579,-0.22927 -0.468296,-0.39639 -0.161718,-0.27377 0.164369,-1.84254 0,-1.98167 -0.110367,-0.0934 -0.398492,0.11817 -0.468295,0 -0.147154,-0.24911 0.147155,-1.33617 0,-1.58528 -0.09871,-0.16711 -0.369579,-0.22927 -0.468294,-0.39638 -0.128838,-0.21812 0.122025,-2.0682 0,-2.37807 -0.0698,-0.17725 -0.369579,-0.22927 -0.468295,-0.39638 -0.122335,-0.2071 0.103133,-2.24711 0,-2.37806 -0.244886,-0.31093 -0.739158,-0.45854 -0.93659,-0.79278 -0.05507,-0.0932 0,-1.32491 0,-1.58528 v -1.94537 c 0.107314,-0.10989 0.24711,-0.24574 0.468296,-0.43296 0.780414,-0.66059 1.561053,-1.3211 2.341474,-1.98167 0.244854,-0.20727 1.688175,-1.53317 1.872859,-1.58529 0.296142,-0.0836 0.657381,0.11817 0.936589,0 0.139604,-0.0591 -0.110366,-0.30297 0,-0.39639 0.110368,-0.0934 0.398494,0.11817 0.468297,0 0.139604,-0.23634 -0.139604,-0.55643 0,-0.79277 0.0698,-0.11817 0.357613,0.0934 0.467973,0 0.220737,-0.18684 -0.139604,-0.55644 0,-0.79278 0.09872,-0.16712 0.312208,-0.264 0.468296,-0.39612 0.15608,-0.13212 0.312214,-0.26427 0.468295,-0.39639 0.246514,-0.20866 1.154795,-1.08332 1.404884,-1.18916 0.139604,-0.0591 0.357927,0.0934 0.468296,0 0.220735,-0.18685 -0.139604,-0.55644 0,-0.79278 0.09871,-0.16711 0.369257,-0.229 0.467973,-0.39612 0.139604,-0.23633 -0.139604,-0.55643 0,-0.79277 0.09872,-0.16712 0.369586,-0.22927 0.468297,-0.39639 0.0698,-0.11817 -0.110369,-0.30297 0,-0.39639 0.110366,-0.0934 0.398491,0.11817 0.468294,0 0.139604,-0.23634 -0.13961,-0.55644 0,-0.79278 0.07233,-0.12244 1.237381,0.0709 1.404884,0 0.967349,-0.4094 -0.02865,-0.64438 0.93627,-1.18889 1.213486,-0.68477 1.228383,-0.0861 2.341474,-0.79278 0.353179,-0.22421 0.583097,-0.56856 0.93627,-0.79277 0.279214,-0.17725 0.689802,-0.18723 0.936591,-0.39612 0.246788,-0.2089 0.221506,-0.58389 0.468294,-0.79278 0.570321,-0.48275 1.046306,-0.18574 1.404885,-0.79278 0.0698,-0.11817 -0.110368,-0.30296 0,-0.39638 0.220735,-0.18684 0.715531,0.18684 0.936272,0 0.110362,-0.0934 -0.110367,-0.30297 0,-0.39639 0.128127,-0.10845 1.619161,0.10751 1.873177,0 0.197433,-0.0836 0.270865,-0.31256 0.468297,-0.39612 0.139604,-0.0591 0.357608,0.0934 0.467969,0 0.110374,-0.0934 0,-0.26427 0,-0.39638 v -1.98195 c 0,-0.13212 0.08658,-0.28619 0,-0.39612 -0.24488,-0.31092 -0.624099,-0.52855 -0.936266,-0.79277 -0.15608,-0.13212 -0.369575,-0.22927 -0.468297,-0.39639 -0.139604,-0.23634 0.220735,-0.60594 0,-0.79278 -0.110362,-0.0934 -0.312211,0 -0.468291,0 h -0.468297 -0.936589 c -0.15608,0 -0.328371,-0.0591 -0.467975,0 -0.503356,0.21303 -0.605658,0.93301 -1.404885,0.79278 -0.312167,0.13212 -0.624423,0.26427 -0.936589,0.39639 -0.156088,0 -0.320218,-0.0418 -0.468296,0 -1.622975,0.45792 -0.406809,0.41496 -1.405844,0.39991 1.29e-4,-0.001 0.0013,-0.002 0.0013,-0.004 0,-0.13212 -0.312213,0 -0.468294,0 -0.156086,0 -0.328691,-0.0591 -0.468295,0 -0.394859,0.16712 -0.569264,0.58522 -0.93659,0.7925 -0.757261,0.42733 -1.5839,0.76185 -2.341154,1.18917 -0.183663,0.10364 -0.270863,0.31283 -0.468294,0.39639 -0.279208,0.11817 -0.657062,-0.11817 -0.93627,0 -0.197434,0.0836 -0.25889,0.3373 -0.468296,0.39639 -0.116735,0.0329 -2.293222,-0.0408 -2.341475,0 -0.246786,0.20889 -0.274375,0.5467 -0.467973,0.7925 -0.122441,0.15546 -0.312209,0.26428 -0.468297,0.39639 -0.156086,0.13212 -0.291704,0.28428 -0.468294,0.39639 -0.45021,0.28581 -1.006946,0.45594 -1.404884,0.79278 -0.246788,0.20889 -0.274703,0.54696 -0.468296,0.79277 -0.244885,0.31092 -0.671389,0.49356 -0.93627,0.79251 -1.9904,2.24637 -0.668301,0.45009 -0.936589,1.58555 -0.126213,0.53415 -0.312215,1.05681 -0.468294,1.58529 l -0.936591,5.54998 v -6.73888 -1.98194 c 0,-0.13212 -0.110367,-0.30297 0,-0.39639 0.110368,-0.0934 0.357928,0.0934 0.468296,0 0.220734,-0.18684 -0.139604,-0.55617 0,-0.79251 0.09872,-0.16711 0.398491,-0.21913 0.468295,-0.39638 0.09871,-0.25068 -0.07572,-0.53644 0,-0.79278 0.08464,-0.28661 0.357926,-0.51252 0.468294,-0.79278 0.09871,-0.25067 -0.220735,-0.60567 0,-0.7925 0.110368,-0.0934 0.357928,0.0934 0.468295,0 0.220734,-0.18684 -0.139605,-0.55645 0,-0.79278 0.09872,-0.16712 0.369585,-0.22927 0.468294,-0.39639 0.139604,-0.23634 -0.09871,-0.5421 0,-0.79278 0.110369,-0.28026 0.357928,-0.51224 0.468296,-0.7925 0.09872,-0.25068 -0.220736,-0.60594 0,-0.79278 0.11036,-0.0934 0.357607,0.0934 0.467974,0 0.234121,-0.19817 -0.234126,-0.99099 0,-1.18916 0.110368,-0.0934 0.357928,0.0934 0.468296,0 0.220735,-0.18684 -0.09872,-0.54184 0,-0.79251 0.110367,-0.28026 0.357926,-0.51251 0.468294,-0.79278 0.09872,-0.25067 -0.220734,-0.60593 0,-0.79277 0.246788,-0.2089 0.689802,-0.1875 0.93659,-0.39639 0.110368,-0.0934 -0.0698,-0.27795 0,-0.39612 0.09872,-0.16712 0.369578,-0.22927 0.468294,-0.39638 0.0698,-0.11817 -0.0698,-0.27823 0,-0.3964 0.197434,-0.33422 0.796666,-0.43827 0.93627,-0.79277 0,-0.0971 -0.0089,-0.19558 -0.02016,-0.29425 -0.05956,-0.21097 -0.161317,-0.43189 -0.04449,-0.48525 -0.0019,-0.13974 0.01255,-0.27707 0.06466,-0.4094 0.04937,-0.12533 0.357928,0.0934 0.468296,0 0.110366,-0.0934 -0.0698,-0.27822 0,-0.39639 0.09872,-0.16711 0.369577,-0.22927 0.468295,-0.39638 0.250478,-0.42404 -0.25048,-0.36875 0,-0.79278 0.09871,-0.16712 0.345854,-0.24093 0.468294,-0.39639 0.193598,-0.2458 0.221507,-0.58361 0.468295,-0.7925 0.246794,-0.2089 0.689803,-0.1875 0.93659,-0.39639 0.220736,-0.18685 -0.139604,-0.55644 0,-0.79278 0.09872,-0.16712 0.369258,-0.22927 0.467974,-0.39639 0.138142,-0.23385 -0.107356,-0.91627 0,-1.18889 0.110368,-0.28026 0.357928,-0.51252 0.468296,-0.79278 0.09872,-0.25067 -0.220736,-0.60594 0,-0.79278 0.110367,-0.0934 0.357926,0.0934 0.468295,0 0.01883,-0.016 0,-1.43972 0,-1.58528 v -1.18902 c 0,-0.13212 -0.156088,-0.39639 0,-0.39639 0.02105,0 0.03557,0.0108 0.04641,0.0271 0.02205,-0.1486 0.02977,-0.29451 -0.04641,-0.42348 h -0.240709 c -0.11561,0.033 -0.227586,0.07 -0.227586,0 H 69.356733 66.078989 64.20613 c -0.156086,0 -0.468295,0.13211 -0.468295,0 0,-0.002 0.0013,-0.003 0.0016,-0.005 -1.265828,-0.0243 0.309271,-0.12641 -0.938191,0.40154 -0.139604,0.0591 -0.398172,-0.11817 -0.467973,0 -0.08549,0.14472 0.09114,1.90479 0,1.98194 -0.110369,0.0934 -0.357928,-0.0934 -0.468296,0 -0.220729,0.18684 0.220736,0.60566 0,0.7925 -0.110367,0.0934 -0.357927,-0.0934 -0.468295,0 -0.168203,0.14238 0.151466,1.32914 0,1.58556 -0.0698,0.11817 -0.320223,-0.0418 -0.468295,0 -0.331103,0.0934 -0.689796,0.18749 -0.936589,0.39639 -0.110368,0.0934 0.0698,0.27794 0,0.39611 -0.249235,0.42194 -0.68703,0.37084 -0.93627,0.79278 -0.0698,0.11817 0.0698,0.27822 0,0.39639 -0.581391,0.98423 -0.399814,-0.17077 -1.404885,0.39639 -0.274139,0.46409 -0.403194,0.7162 -0.463814,0.8513 0.0085,-0.11314 -0.06414,-0.23147 -0.472776,-0.0585 -1.948746,0.82476 0.500533,-0.0275 -0.468296,0.79251 -0.11036,0.0934 -0.328369,-0.0591 -0.467973,0 -0.349011,0 -0.605488,0.30297 -0.936591,0.39639 -0.2939,0.0829 -1.496221,0 -1.87318,0 -0.396444,0 -1.621128,0.071 -1.872858,0 -0.209406,-0.0591 -0.270869,-0.31283 -0.468295,-0.39639 -0.139611,-0.0591 -0.357929,0.0934 -0.468295,0 -0.110368,-0.0934 0.110366,-0.30297 0,-0.39639 -0.110368,-0.0934 -0.328692,0.0591 -0.468296,0 -0.197431,-0.0836 -0.284311,-0.29247 -0.467973,-0.39612 -0.290396,-0.16387 -0.64619,-0.23251 -0.936591,-0.39638 -0.183657,-0.10364 -0.312209,-0.26428 -0.468295,-0.39639 -0.312167,-0.26424 -0.691711,-0.48186 -0.936589,-0.79278 -0.08658,-0.10993 0.0698,-0.27822 0,-0.39639 -0.09872,-0.16711 -0.369579,-0.22927 -0.468296,-0.39639 -0.139605,-0.23633 0.220736,-0.60566 0,-0.7925 -0.110361,-0.0934 -0.357607,0.0934 -0.467974,0 -0.09114,-0.0772 0.08549,-1.83722 0,-1.98194 -0.0698,-0.11817 -0.357928,0.0934 -0.468296,0 -0.110367,-0.0934 0.0698,-0.27795 0,-0.39612 -0.276048,-0.23366 -0.421169,-0.35074 -0.519509,-0.42755 0.162215,0.10242 0.3701,0.17461 0.05121,-0.36523 -0.197431,-0.33423 -0.739157,-0.45854 -0.936589,-0.79278 -0.0698,-0.11816 0.139604,-0.3373 0,-0.39638 -0.279208,-0.11817 -0.715854,0.18684 -0.936591,0 -0.220735,-0.18684 0,-0.52828 0,-0.79251 z m 20.604656,0.78736 c 0.132452,0.003 0.26478,0.005 0.466695,0.005 0.153771,0 -0.448792,-0.12769 -0.466695,-0.005 z m 6.085595,0.005 h 0.227585 c 0.06266,-0.0179 0.124311,-0.0323 0.17189,-0.0298 -0.140332,-0.029 -0.399475,-0.0572 -0.399475,0.0298 z m 0.399475,-0.0298 c 0.01391,0.003 0.0329,0.005 0.04385,0.008 -0.01178,-0.006 -0.02764,-0.007 -0.04385,-0.008 z m 0.04385,0.008 c 0.0102,0.005 0.01905,0.0117 0.02497,0.0217 0.04311,0 0.02139,-0.01 -0.02497,-0.0217 z m 0.07138,0.44515 c -0.01836,0.12371 -0.04641,0.24926 -0.04641,0.3693 0,0.11429 0.115956,-0.26467 0.04641,-0.3693 z M 66.014304,183.321 c 0.0022,0.16003 0.026,0.32297 0.04449,0.48525 0.0309,0.10947 0.05092,0.21614 0.02016,0.29425 0,0.26423 0.312167,-0.79278 0,-0.79278 -0.02745,0 -0.04755,0.005 -0.06466,0.0133 z m -10.362345,-2.2854 c -0.127175,0.15416 -0.222693,0.39186 -0.3425,0.29045 -0.09387,-0.0795 0.161766,-0.20164 0.3425,-0.29045 z"
       id="path129"
       inkscape:connector-curvature="0" />
    <path
       style="opacity:0.98999999;fill:#008000;fill-opacity:1;stroke-width:0.14375938"
       d="m 86.1988,171.27163 a 11.946115,11.262646 0 0 0 -11.945838,11.26265 11.946115,11.262646 0 0 0 3.06412,7.51178 10.306454,9.8835458 0 0 0 -1.658878,5.35981 10.306454,9.8835458 0 0 0 10.306499,9.88342 10.306454,9.8835458 0 0 0 10.161106,-8.30149 10.774929,9.4238462 0 0 0 0.61391,0.027 10.774929,9.4238462 0 0 0 10.774711,-9.42366 10.774929,9.4238462 0 0 0 -10.307151,-9.40356 11.946115,11.262646 0 0 0 -11.008479,-6.91597 z"
       id="path133"
       inkscape:connector-curvature="0" />
  </g>
</svg>
